<svg xmlns="http://www.w3.org/2000/svg" width="150" height="150" version="1.0" viewBox="0 0 512 512" fill="#00ff00"><path d="M241.9 1.5c-20.1 4-38.7 18.4-48.1 37.1-2.4 4.9-5 11.7-5.7 15l-1.3 6.2-7.5.4c-7 .3-7.7.6-10.4 3.6-3.8 4.2-3.8 8.2 0 12.4 2.6 3 3.5 3.3 10 3.6l7.1.4v47.3l-4.5 2.4c-19.7 10.4-20.3 40.4-1 51.7 2.5 1.4 4.5 3.1 4.5 3.7 0 .7-4.1 46.9-9.1 102.7-7.4 83.4-9.3 101.7-10.6 102.5-.8.5-3.5 2.2-5.9 3.7-8.6 5.3-13.4 15.3-13.4 27.9v6.7l-8.7.4c-10.6.5-16.3 2.8-22.3 8.8-7.7 7.7-8.5 10.6-8.8 33.7l-.3 20.2-17 .3-16.9.3-2.7 2.7c-3.8 3.9-3.8 9.7 0 13.6l2.7 2.7 183.5.3 183.5.2 3.2-2.9c2.7-2.4 3.3-3.6 3.3-7.1 0-3.5-.6-4.7-3.3-7.1L439 492h-32.9l-.3-20.3c-.3-23.1-1.1-26-8.8-33.7-6-6-11.7-8.3-22.2-8.8l-8.8-.4v-6.7c0-12.6-4.8-22.6-13.4-27.9-2.4-1.5-5.1-3.2-5.9-3.7-1.3-.8-3.2-19.1-10.6-102.5-5-55.8-9.1-102-9.1-102.6 0-.6 2.2-2.5 4.9-4.2 19-11.8 18.2-40.9-1.4-51.3l-4.5-2.4V80h6.5c5.7 0 6.8-.3 9.7-2.9 2.7-2.4 3.3-3.6 3.3-7.1 0-3.5-.6-4.7-3.3-7.1-2.9-2.6-3.9-2.9-10.1-2.9h-6.8l-1.3-6.3c-2.2-10-9.2-22.8-17.2-31.3-17.3-18.2-40.7-25.7-64.9-20.9zm31.6 22c7.9 2.9 15.7 8.5 20.9 14.8 3.3 4 8.5 14.2 10.1 19.4l.6 2.3h-98.2l.6-2.3c1.6-5.2 6.8-15.4 10.1-19.4 6.9-8.4 17.8-14.9 28.9-17.3 6.9-1.5 19.4-.4 27 2.5zM246 103v23h-40V80h40v23zm60 0v23h-40V80h40v23zm16.7 46.2c4.1 4.2 3.9 10-.5 13.9l-3.3 2.9-63.4-.2-63.5-.3-2.5-2.6c-3.7-3.6-4.3-8.7-1.5-12.2 1.3-1.6 3.2-3.3 4.4-3.7 1.1-.5 30.3-.8 64.8-.7l62.8.2 2.7 2.7zM238 203.9c-19.5 9.9-35.6 17.8-35.8 17.6-.1-.1.4-7.7 1.3-16.9.8-9.1 1.5-17.1 1.5-17.6 0-.6 12.4-1 34.3-.9h34.2L238 203.9zm71.7 12.7c1.2 13.1 2.2 25.4 2.2 27.1l.1 3.3-58.1 29.1c-32 15.9-58.4 28.7-58.7 28.4-.6-.6 3.3-49.5 4.5-56.3.5-3.3 1.3-3.7 53.2-29.7 28.9-14.5 53.1-26.3 53.6-26.1.6.1 2 11 3.2 24.2zm7.3 81.7c1.2 13.7 2 25 1.8 25.2-.2.1-28.4 14.9-62.8 32.9-44.6 23.2-63.5 32.6-65.8 32.6-1.7 0-3.2-.2-3.2-.4 0-.3 1.1-12.9 2.5-28.2 1.4-15.2 2.5-28.6 2.5-29.6 0-1.4 13.5-8.6 60.8-32.2l60.7-30.4.7 2.7c.4 1.4 1.7 13.8 2.8 27.4zm6.1 68.8c1.1 11.7 1.8 21.4 1.6 21.6-.2.2-19.9.2-43.7.1l-43.3-.3 41.4-21.6c22.8-12 41.6-21.5 41.7-21.4.2.2 1.2 9.9 2.3 21.6zm19.1 44.8c2.9 2.6 3.3 3.5 3.6 9.9l.4 7.1-27.2.3-27.2.3-2.4 2.8c-3.3 3.8-3.3 9.6 0 13.4l2.4 2.8 44.1.5 44.1.5 2.7 2.8 2.8 2.7.3 18.5.3 18.5H125.9l.3-18.5.3-18.5 2.8-2.7 2.7-2.8 44.1-.5 44.1-.5 2.4-2.8c3.3-3.8 3.3-9.6 0-13.4l-2.4-2.8-27.2-.3-27.2-.3.4-6.9c.4-7.1 2-10.3 6.3-12.1 1.1-.4 39-.8 84.2-.8l82.3-.1 3.2 2.9z"/><path d="M252.4 430c-3.2 1.3-6.4 5.9-6.4 9.1 0 4 4.6 8.8 9.1 9.5 3.1.5 4.2.1 7-2.4s3.4-3.7 3.4-7.2-.6-4.7-3.3-7.1c-3.3-2.9-6-3.5-9.8-1.9zM70.5 54.9c-6.2 2.7-8.1 11-3.5 15.6 3.3 3.3 71.2 31.5 75.8 31.5 7.8 0 12.3-10.6 6.8-16.1-2.4-2.4-68.9-30.5-74.3-31.4-1.5-.2-3.7-.1-4.8.4zM421 60.3c-47.9 19.7-56.4 23.4-58.6 25.6-5.5 5.5-1 16.1 6.8 16.1 4.6 0 72.5-28.2 75.8-31.5 5.2-5.2 2-14.6-5.5-16-2.3-.4-6.9 1-18.5 5.8zM92.5 126.9c-6.4 2.7-8.1 11-3.2 15.8l2.7 2.8 23.4.3 23.5.3 3.3-2.9c2.7-2.5 3.3-3.7 3.3-7.2s-.6-4.7-3.3-7.1L139 126l-22.3.1c-12.2 0-23.1.4-24.2.8zM372.4 127c-3.2 1.3-6.4 5.9-6.4 9.1 0 1.8 1.1 4.1 2.9 6.1l2.9 3.3 23.5.3 23.6.3 3.3-2.9c2.7-2.5 3.3-3.7 3.3-7.2s-.6-4.7-3.3-7.1L419 126l-22.3.1c-12.2 0-23.2.4-24.3.9zM104 184.6c-21 8.8-35.5 15.4-37 16.9-5.7 5.8-1.4 16 6.7 15.9 5 0 72.5-27.9 75.9-31.3 5.7-5.7 1-16.2-7.3-16-2.5 0-15.6 5-38.3 14.5zM362.9 172.9c-3.8 3.9-4 9.7-.5 13.2 3.4 3.4 70.9 31.3 75.8 31.3 8.2.1 12.5-10.1 6.8-15.9-3.3-3.3-71.2-31.5-75.8-31.5-2.4 0-4.2.8-6.3 2.9z"/></svg>
